<?xml version="1.0" encoding="utf-8"?><!-- Uploaded to: SVG Repo, www.svgrepo.com, Generator: SVG Repo Mixer Tools -->
<svg fill="#000000" width="800px" height="800px" viewBox="0 0 24 24" id="at-2" data-name="Flat Line" xmlns="http://www.w3.org/2000/svg" class="icon flat-line"><path id="primary" d="M16,12a4.65,4.65,0,0,1-4.49,4A3.47,3.47,0,0,1,8,12a4.6,4.6,0,0,1,4.44-4A3.51,3.51,0,0,1,16,12Zm.33-3,0,0-.75,6.32A1.5,1.5,0,0,0,17.12,17h0a3.58,3.58,0,0,0,3.56-3.13l.2-1.58c.81-5.68-2.47-9-7.2-9.27A10.35,10.35,0,0,0,3.06,12,7.83,7.83,0,0,0,11,21a9.31,9.31,0,0,0,3-.52" style="fill: none; stroke: rgb(0, 0, 0); stroke-linecap: round; stroke-linejoin: round; stroke-width: 2;"></path></svg>